<svg width="18" height="18" viewBox="0 0 18 18" fill="none" xmlns="http://www.w3.org/2000/svg">
<path fill-rule="evenodd" clip-rule="evenodd" d="M0.21967 0.46967C0.512563 0.176777 0.987437 0.176777 1.28033 0.46967L8.75 7.93934L16.2197 0.46967C16.5126 0.176777 16.9874 0.176777 17.2803 0.46967C17.5732 0.762563 17.5732 1.23744 17.2803 1.53033L9.81066 9L17.2803 16.4697C17.5732 16.7626 17.5732 17.2374 17.2803 17.5303C16.9874 17.8232 16.5126 17.8232 16.2197 17.5303L8.75 10.0607L1.28033 17.5303C0.987437 17.8232 0.512563 17.8232 0.21967 17.5303C-0.0732233 17.2374 -0.0732233 16.7626 0.21967 16.4697L7.68934 9L0.21967 1.53033C-0.0732233 1.23744 -0.0732233 0.762563 0.21967 0.46967Z" fill="black"/>
</svg>
