<svg width="17" height="14" viewBox="0 0 17 14" fill="none" xmlns="http://www.w3.org/2000/svg">
<path d="M14.1667 0H2.5C1.83696 0 1.20107 0.263392 0.732233 0.732233C0.263392 1.20107 0 1.83696 0 2.5V10.8333C0 11.4964 0.263392 12.1323 0.732233 12.6011C1.20107 13.0699 1.83696 13.3333 2.5 13.3333H14.1667C14.8297 13.3333 15.4656 13.0699 15.9344 12.6011C16.4033 12.1323 16.6667 11.4964 16.6667 10.8333V2.5C16.6667 1.83696 16.4033 1.20107 15.9344 0.732233C15.4656 0.263392 14.8297 0 14.1667 0ZM13.6083 1.66667L8.33333 5.625L3.05833 1.66667H13.6083ZM14.1667 11.6667H2.5C2.27899 11.6667 2.06702 11.5789 1.91074 11.4226C1.75446 11.2663 1.66667 11.0543 1.66667 10.8333V2.70833L7.83333 7.33333C7.97758 7.44152 8.15303 7.5 8.33333 7.5C8.51364 7.5 8.68909 7.44152 8.83333 7.33333L15 2.70833V10.8333C15 11.0543 14.9122 11.2663 14.7559 11.4226C14.5996 11.5789 14.3877 11.6667 14.1667 11.6667Z" fill="#FFD565"/>
</svg>
