<svg width="35" height="43" viewBox="0 0 35 43" fill="none" xmlns="http://www.w3.org/2000/svg">
<path d="M17.4107 0C22.0283 0 26.4568 1.83434 29.722 5.09948C32.9871 8.36462 34.8214 12.7931 34.8214 17.4107C34.8214 24.7679 29.6518 32.7857 19.4464 41.55C18.879 42.0375 18.1555 42.3052 17.4074 42.3046C16.6593 42.3039 15.9362 42.0349 15.3696 41.5464L14.6946 40.9607C4.94107 32.425 0 24.6036 0 17.4107C0 12.7931 1.83434 8.36462 5.09948 5.09948C8.36462 1.83434 12.7931 0 17.4107 0ZM17.4107 10.7143C15.6347 10.7143 13.9314 11.4198 12.6756 12.6756C11.4198 13.9314 10.7143 15.6347 10.7143 17.4107C10.7143 19.1867 11.4198 20.89 12.6756 22.1458C13.9314 23.4016 15.6347 24.1071 17.4107 24.1071C19.1867 24.1071 20.89 23.4016 22.1458 22.1458C23.4016 20.89 24.1071 19.1867 24.1071 17.4107C24.1071 15.6347 23.4016 13.9314 22.1458 12.6756C20.89 11.4198 19.1867 10.7143 17.4107 10.7143Z" fill="#FFD565"/>
</svg>
