<svg width="17" height="17" viewBox="0 0 17 17" fill="none" xmlns="http://www.w3.org/2000/svg">
<path fill-rule="evenodd" clip-rule="evenodd" d="M12.2398 16.6395C11.0398 16.5954 7.63895 16.1254 4.07728 12.5645C0.516452 9.00287 0.047285 5.60287 0.002285 4.40204C-0.0643817 2.57204 1.33728 0.794537 2.95645 0.10037C3.15143 0.0161758 3.36495 -0.0158795 3.57606 0.00734967C3.78717 0.0305788 3.98861 0.108294 4.16062 0.23287C5.49395 1.20454 6.41395 2.67454 7.20395 3.83037C7.37777 4.08431 7.45209 4.39333 7.41275 4.69853C7.37341 5.00374 7.22315 5.28381 6.99062 5.48537L5.36478 6.69287C5.28624 6.74959 5.23094 6.83289 5.20918 6.92731C5.18742 7.02172 5.20066 7.12082 5.24645 7.2062C5.61478 7.87537 6.26978 8.87204 7.01978 9.62204C7.77062 10.372 8.81395 11.0704 9.52978 11.4804C9.61954 11.5308 9.72518 11.5448 9.825 11.5197C9.92481 11.4946 10.0112 11.4322 10.0665 11.3454L11.1248 9.73454C11.3194 9.47608 11.6064 9.30293 11.9258 9.25136C12.2451 9.19978 12.5721 9.27379 12.8381 9.45787C14.0106 10.2695 15.3789 11.1737 16.3806 12.4562C16.5153 12.6295 16.601 12.8357 16.6287 13.0534C16.6564 13.2711 16.6251 13.4922 16.5381 13.6937C15.8406 15.3212 14.0756 16.707 12.2398 16.6395Z" fill="#FFD565"/>
</svg>
