<svg width="53" height="44" viewBox="0 0 53 44" fill="none" xmlns="http://www.w3.org/2000/svg">
<path d="M48.0241 0.386238C48.0241 0.386238 52.8808 -1.50751 52.476 3.0916C52.3411 4.98538 51.127 11.6135 50.1826 18.7827L46.9449 40.0199C46.9449 40.0199 46.6751 43.131 44.2467 43.6721C41.8184 44.2131 38.176 41.7784 37.5014 41.2373C36.9617 40.8315 27.3835 34.7444 24.0107 31.7685C23.0664 30.9569 21.9871 29.3336 24.1456 27.4399L38.3109 13.9131C39.9297 12.2899 41.5486 8.50237 34.8032 13.1015L15.9164 25.952C15.9164 25.952 13.7579 27.3046 9.71075 26.0872L0.941776 23.3819C0.941776 23.3819 -2.29599 21.3529 3.23519 19.3237C16.7259 12.9661 33.3194 6.47325 48.0241 0.386238Z" fill="black"/>
</svg>
